<svg xmlns="http://www.w3.org/2000/svg" viewBox="-800 -800 1600 1600" data-map="duskwood" class="vw-mapsvg" role="img"><title>Mroczny Bór / Duskwood</title><style>svg{font-family:"Alegreya Sans",system-ui,sans-serif}.k{transform:scale(var(--k,1.8))}text[lang="en"]{display:none}.m-shade{fill:var(--vw-map-shade,#14161B);opacity:var(--vw-map-shade-o,.42)}.m-water{fill:var(--vw-map-water,#3A6FA8)}.m-stream{fill:none;stroke:var(--vw-map-water,#3A6FA8);stroke-linecap:round;stroke-linejoin:round}.m-road{fill:none;stroke:var(--vw-map-path,#9A8A68);stroke-linecap:round;stroke-linejoin:round;opacity:.85}.m-floor{fill:var(--vw-map-floor,#5A5650)}.m-corr{fill:none;stroke:var(--vw-map-floor,#5A5650);stroke-linecap:round}.m-area{fill:var(--vw-map-area,rgba(240,236,226,.07));stroke:var(--vw-map-area-line,rgba(240,236,226,.5));stroke-width:1.5px;vector-effect:non-scaling-stroke;stroke-dasharray:6 4}.m-room{fill:none;stroke:rgba(240,236,226,.25);stroke-width:1px;vector-effect:non-scaling-stroke}.m-gather{fill:none;stroke-width:1px;vector-effect:non-scaling-stroke;stroke-dasharray:3 5;opacity:.7}.m-vein{stroke:#E8C25A;fill:#E8C25A}.m-bush{stroke:#6FCF5A;fill:#6FCF5A}.m-fishing{stroke:#5AA8E8;fill:#5AA8E8}.m-gather-rect{fill-opacity:.06}.m-shape{stroke:#14161B;stroke-width:1.5px}.m-arrow{stroke:#F0ECE2;stroke-width:2px;stroke-linecap:round}.m-glyph{font-size:10px;text-anchor:middle;dominant-baseline:central;fill:#14161B;font-weight:800}.m-label,.m-alabel,.m-node-name,.m-node-lv{text-anchor:middle;paint-order:stroke;stroke:#101216;stroke-width:3.5px;stroke-linejoin:round;fill:#F0ECE2}.m-label{font-size:12px;font-weight:800}.m-alabel{font-size:14px;font-weight:800}.m-alv{font-size:12px;font-weight:700;fill:#E8C25A}.m-portal .m-shape{fill:#4A8BE8}.m-gate .m-shape{fill:#4A8BE8}.m-exit .m-shape{fill:#9AA4B4}.m-cave .m-shape{fill:#E0503F}.m-dungeon .m-shape{fill:#E0503F}.m-npc .m-shape{fill:#E8C25A}.m-boss .m-shape{fill:#E0503F}.m-group .m-shape{fill:#F0ECE2}.m-elite .m-shape{fill:#E8C25A}.m-elite2 .m-shape{fill:#FF9F1C}.m-link{stroke:rgba(232,194,90,.45);stroke-width:2px;vector-effect:non-scaling-stroke;stroke-dasharray:2 6;stroke-linecap:round}.m-node .m-plate{fill:#1B1D23;stroke:rgba(232,194,90,.55);stroke-width:1px;vector-effect:non-scaling-stroke}.m-node-name{font-family:'Grenze Gotisch',serif;font-size:22px;font-weight:700}.m-node-lv{font-size:12px;font-weight:800;fill:#C9C2B0}.m-wbg{fill:var(--vw-map-world,#15171C)}.m-cavenode .m-shape{fill:#E0503F}.m-citynode .m-shape{fill:#5FCF6B}</style><g id="layer-bg"><rect class="m-bg" x="-800" y="-800" width="1600" height="1600" style="fill:var(--vw-map-bg-forest,#2E3B26)"/></g><g id="layer-water"><path class="m-water" d="M370 420a50 50 0 1 0 100 0a50 50 0 1 0 -100 0ZM530 560a70 70 0 1 0 140 0a70 70 0 1 0 -140 0ZM600 300a40 40 0 1 0 80 0a40 40 0 1 0 -80 0ZM445 650a35 35 0 1 0 70 0a35 35 0 1 0 -70 0Z"/></g><g id="layer-roads"><path class="m-road" d="M80 0L160 320L380 420M-480 20L-420 -400L-420 -720M-80 -320L120 -520L180 -720" style="stroke-width:8"/><path class="m-road" d="M-790 160L-480 20M-200 -60L-80 -320M360 -40L500 -480M560 0L740 -740" style="stroke-width:10"/><path class="m-road" d="M-790 0L-480 20L-200 -60L80 0L360 -40L560 0L720 0" style="stroke-width:12"/></g><rect class="m-shade" x="-800" y="-800" width="1600" height="1600"/><g id="layer-areas"><rect id="area-duskwood_werethicket" data-id="duskwood_werethicket" class="m-area" x="-757" y="-397" width="334" height="794" rx="10" data-lv="20-25" data-profile="exp"/><rect id="area-duskwood_bearhollow" data-id="duskwood_bearhollow" class="m-area" x="-757" y="423" width="454" height="354" rx="10" data-lv="21-27" data-profile="loot"/><rect id="area-duskwood_ruins" data-id="duskwood_ruins" class="m-area" x="-397" y="-777" width="454" height="624" rx="10" data-lv="24-31" data-profile="gold"/><rect id="area-duskwood_heart" data-id="duskwood_heart" class="m-area" x="-247" y="153" width="544" height="624" rx="10" data-lv="26-33" data-profile="exp"/><rect id="area-duskwood_cultvillage" data-id="duskwood_cultvillage" class="m-area" x="303" y="-777" width="474" height="474" rx="10" data-lv="29-37" data-profile="gold"/><rect id="area-duskwood_crossroads" data-id="duskwood_crossroads" class="m-area" x="83" y="-297" width="414" height="214" rx="10" data-lv="30-36" data-profile="exp"/><rect id="area-duskwood_swamp" data-id="duskwood_swamp" class="m-area" x="303" y="183" width="474" height="594" rx="10" data-lv="32-40" data-profile="exp"/><rect id="area-duskwood_witchmarsh" data-id="duskwood_witchmarsh" class="m-area" x="-197" y="33" width="494" height="104" rx="10" data-lv="36-42" data-profile="loot"/><rect id="area-duskwood_bloodcliffs" data-id="duskwood_bloodcliffs" class="m-area" x="523" y="-297" width="254" height="454" rx="10" data-lv="40-45"/></g><g id="layer-groups"><g id="group-duskwood_werethicket_1" data-id="duskwood_werethicket_1" class="mk m-group lod-3" transform="translate(-597 139)" data-variant="normal" data-area="duskwood_werethicket"><g class="k"><path class="m-shape" d="M-3 0a3 3 0 1 0 6 0a3 3 0 1 0 -6 0Z"/></g></g><g id="group-duskwood_werethicket_2" data-id="duskwood_werethicket_2" class="mk m-group lod-3" transform="translate(-646 144)" data-variant="normal" data-area="duskwood_werethicket"><g class="k"><path class="m-shape" d="M-3 0a3 3 0 1 0 6 0a3 3 0 1 0 -6 0Z"/></g></g><g id="group-duskwood_werethicket_3" data-id="duskwood_werethicket_3" class="mk m-group lod-3" transform="translate(-545 -110)" data-variant="normal" data-area="duskwood_werethicket"><g class="k"><path class="m-shape" d="M-3 0a3 3 0 1 0 6 0a3 3 0 1 0 -6 0Z"/></g></g><g id="group-duskwood_werethicket_4" data-id="duskwood_werethicket_4" class="mk m-group lod-3" transform="translate(-501 159)" data-variant="normal" data-area="duskwood_werethicket"><g class="k"><path class="m-shape" d="M-3 0a3 3 0 1 0 6 0a3 3 0 1 0 -6 0Z"/></g></g><g id="group-duskwood_werethicket_5" data-id="duskwood_werethicket_5" class="mk m-group lod-3" transform="translate(-749 398)" data-variant="normal" data-area="duskwood_werethicket"><g class="k"><path class="m-shape" d="M-3 0a3 3 0 1 0 6 0a3 3 0 1 0 -6 0Z"/></g></g><g id="group-duskwood_werethicket_6" data-id="duskwood_werethicket_6" class="mk m-group lod-3" transform="translate(-730 325)" data-variant="normal" data-area="duskwood_werethicket"><g class="k"><path class="m-shape" d="M-3 0a3 3 0 1 0 6 0a3 3 0 1 0 -6 0Z"/></g></g><g id="group-duskwood_werethicket_7" data-id="duskwood_werethicket_7" class="mk m-group lod-3" transform="translate(-557 273)" data-variant="normal" data-area="duskwood_werethicket"><g class="k"><path class="m-shape" d="M-3 0a3 3 0 1 0 6 0a3 3 0 1 0 -6 0Z"/></g></g><g id="group-duskwood_werethicket_8" data-id="duskwood_werethicket_8" class="mk m-group lod-3" transform="translate(-608 -168)" data-variant="normal" data-area="duskwood_werethicket"><g class="k"><path class="m-shape" d="M-3 0a3 3 0 1 0 6 0a3 3 0 1 0 -6 0Z"/></g></g><g id="group-duskwood_bearhollow_1" data-id="duskwood_bearhollow_1" class="mk m-group lod-3" transform="translate(-589 513)" data-variant="normal" data-area="duskwood_bearhollow"><g class="k"><path class="m-shape" d="M-3 0a3 3 0 1 0 6 0a3 3 0 1 0 -6 0Z"/></g></g><g id="group-duskwood_bearhollow_2" data-id="duskwood_bearhollow_2" class="mk m-group lod-3" transform="translate(-497 518)" data-variant="normal" data-area="duskwood_bearhollow"><g class="k"><path class="m-shape" d="M-3 0a3 3 0 1 0 6 0a3 3 0 1 0 -6 0Z"/></g></g><g id="group-duskwood_bearhollow_3" data-id="duskwood_bearhollow_3" class="mk m-group lod-3" transform="translate(-665 591)" data-variant="normal" data-area="duskwood_bearhollow"><g class="k"><path class="m-shape" d="M-3 0a3 3 0 1 0 6 0a3 3 0 1 0 -6 0Z"/></g></g><g id="group-duskwood_bearhollow_4" data-id="duskwood_bearhollow_4" class="mk m-group lod-3" transform="translate(-323 698)" data-variant="normal" data-area="duskwood_bearhollow"><g class="k"><path class="m-shape" d="M-3 0a3 3 0 1 0 6 0a3 3 0 1 0 -6 0Z"/></g></g><g id="group-duskwood_bearhollow_5" data-id="duskwood_bearhollow_5" class="mk m-group lod-3" transform="translate(-512 656)" data-variant="normal" data-area="duskwood_bearhollow"><g class="k"><path class="m-shape" d="M-3 0a3 3 0 1 0 6 0a3 3 0 1 0 -6 0Z"/></g></g><g id="group-duskwood_bearhollow_6" data-id="duskwood_bearhollow_6" class="mk m-group lod-3" transform="translate(-402 507)" data-variant="normal" data-area="duskwood_bearhollow"><g class="k"><path class="m-shape" d="M-3 0a3 3 0 1 0 6 0a3 3 0 1 0 -6 0Z"/></g></g><g id="group-duskwood_ruins_1" data-id="duskwood_ruins_1" class="mk m-group lod-3" transform="translate(-55 -745)" data-variant="normal" data-area="duskwood_ruins"><g class="k"><path class="m-shape" d="M-3 0a3 3 0 1 0 6 0a3 3 0 1 0 -6 0Z"/></g></g><g id="group-duskwood_ruins_2" data-id="duskwood_ruins_2" class="mk m-group lod-3" transform="translate(-15 -267)" data-variant="normal" data-area="duskwood_ruins"><g class="k"><path class="m-shape" d="M-3 0a3 3 0 1 0 6 0a3 3 0 1 0 -6 0Z"/></g></g><g id="group-duskwood_ruins_3" data-id="duskwood_ruins_3" class="mk m-group lod-3" transform="translate(-60 -571)" data-variant="normal" data-area="duskwood_ruins"><g class="k"><path class="m-shape" d="M-3 0a3 3 0 1 0 6 0a3 3 0 1 0 -6 0Z"/></g></g><g id="group-duskwood_ruins_4" data-id="duskwood_ruins_4" class="mk m-group lod-3" transform="translate(-178 -166)" data-variant="normal" data-area="duskwood_ruins"><g class="k"><path class="m-shape" d="M-3 0a3 3 0 1 0 6 0a3 3 0 1 0 -6 0Z"/></g></g><g id="group-duskwood_ruins_5" data-id="duskwood_ruins_5" class="mk m-group lod-3" transform="translate(-306 -686)" data-variant="normal" data-area="duskwood_ruins"><g class="k"><path class="m-shape" d="M-3 0a3 3 0 1 0 6 0a3 3 0 1 0 -6 0Z"/></g></g><g id="group-duskwood_ruins_6" data-id="duskwood_ruins_6" class="mk m-group lod-3" transform="translate(-46 -490)" data-variant="normal" data-area="duskwood_ruins"><g class="k"><path class="m-shape" d="M-3 0a3 3 0 1 0 6 0a3 3 0 1 0 -6 0Z"/></g></g><g id="group-duskwood_ruins_7" data-id="duskwood_ruins_7" class="mk m-group lod-3" transform="translate(12 -653)" data-variant="normal" data-area="duskwood_ruins"><g class="k"><path class="m-shape" d="M-3 0a3 3 0 1 0 6 0a3 3 0 1 0 -6 0Z"/></g></g><g id="group-duskwood_heart_1" data-id="duskwood_heart_1" class="mk m-group lod-3" transform="translate(-194 196)" data-variant="normal" data-area="duskwood_heart"><g class="k"><path class="m-shape" d="M-3 0a3 3 0 1 0 6 0a3 3 0 1 0 -6 0Z"/></g></g><g id="group-duskwood_heart_2" data-id="duskwood_heart_2" class="mk m-group lod-3" transform="translate(191 413)" data-variant="normal" data-area="duskwood_heart"><g class="k"><path class="m-shape" d="M-3 0a3 3 0 1 0 6 0a3 3 0 1 0 -6 0Z"/></g></g><g id="group-duskwood_heart_3" data-id="duskwood_heart_3" class="mk m-group lod-3" transform="translate(-13 633)" data-variant="normal" data-area="duskwood_heart"><g class="k"><path class="m-shape" d="M-3 0a3 3 0 1 0 6 0a3 3 0 1 0 -6 0Z"/></g></g><g id="group-duskwood_heart_4" data-id="duskwood_heart_4" class="mk m-group lod-3" transform="translate(48 698)" data-variant="normal" data-area="duskwood_heart"><g class="k"><path class="m-shape" d="M-3 0a3 3 0 1 0 6 0a3 3 0 1 0 -6 0Z"/></g></g><g id="group-duskwood_heart_5" data-id="duskwood_heart_5" class="mk m-group lod-3" transform="translate(268 702)" data-variant="normal" data-area="duskwood_heart"><g class="k"><path class="m-shape" d="M-3 0a3 3 0 1 0 6 0a3 3 0 1 0 -6 0Z"/></g></g><g id="group-duskwood_heart_6" data-id="duskwood_heart_6" class="mk m-group lod-3" transform="translate(-55 351)" data-variant="normal" data-area="duskwood_heart"><g class="k"><path class="m-shape" d="M-3 0a3 3 0 1 0 6 0a3 3 0 1 0 -6 0Z"/></g></g><g id="group-duskwood_heart_7" data-id="duskwood_heart_7" class="mk m-group lod-3" transform="translate(244 270)" data-variant="normal" data-area="duskwood_heart"><g class="k"><path class="m-shape" d="M-3 0a3 3 0 1 0 6 0a3 3 0 1 0 -6 0Z"/></g></g><g id="group-duskwood_cultvillage_1" data-id="duskwood_cultvillage_1" class="mk m-group lod-3" transform="translate(410 -598)" data-variant="normal" data-area="duskwood_cultvillage"><g class="k"><path class="m-shape" d="M-3 0a3 3 0 1 0 6 0a3 3 0 1 0 -6 0Z"/></g></g><g id="group-duskwood_cultvillage_2" data-id="duskwood_cultvillage_2" class="mk m-group lod-3" transform="translate(490 -378)" data-variant="normal" data-area="duskwood_cultvillage"><g class="k"><path class="m-shape" d="M-3 0a3 3 0 1 0 6 0a3 3 0 1 0 -6 0Z"/></g></g><g id="group-duskwood_cultvillage_3" data-id="duskwood_cultvillage_3" class="mk m-group lod-3" transform="translate(724 -535)" data-variant="normal" data-area="duskwood_cultvillage"><g class="k"><path class="m-shape" d="M-3 0a3 3 0 1 0 6 0a3 3 0 1 0 -6 0Z"/></g></g><g id="group-duskwood_cultvillage_4" data-id="duskwood_cultvillage_4" class="mk m-group lod-3" transform="translate(597 -713)" data-variant="normal" data-area="duskwood_cultvillage"><g class="k"><path class="m-shape" d="M-3 0a3 3 0 1 0 6 0a3 3 0 1 0 -6 0Z"/></g></g><g id="group-duskwood_cultvillage_5" data-id="duskwood_cultvillage_5" class="mk m-group lod-3" transform="translate(748 -654)" data-variant="normal" data-area="duskwood_cultvillage"><g class="k"><path class="m-shape" d="M-3 0a3 3 0 1 0 6 0a3 3 0 1 0 -6 0Z"/></g></g><g id="group-duskwood_cultvillage_6" data-id="duskwood_cultvillage_6" class="mk m-group lod-3" transform="translate(585 -489)" data-variant="normal" data-area="duskwood_cultvillage"><g class="k"><path class="m-shape" d="M-3 0a3 3 0 1 0 6 0a3 3 0 1 0 -6 0Z"/></g></g><g id="group-duskwood_cultvillage_7" data-id="duskwood_cultvillage_7" class="mk m-group lod-3" transform="translate(419 -692)" data-variant="normal" data-area="duskwood_cultvillage"><g class="k"><path class="m-shape" d="M-3 0a3 3 0 1 0 6 0a3 3 0 1 0 -6 0Z"/></g></g><g id="group-duskwood_crossroads_1" data-id="duskwood_crossroads_1" class="mk m-group lod-3" transform="translate(195 -163)" data-variant="normal" data-area="duskwood_crossroads"><g class="k"><path class="m-shape" d="M-3 0a3 3 0 1 0 6 0a3 3 0 1 0 -6 0Z"/></g></g><g id="group-duskwood_crossroads_2" data-id="duskwood_crossroads_2" class="mk m-group lod-3" transform="translate(495 -263)" data-variant="normal" data-area="duskwood_crossroads"><g class="k"><path class="m-shape" d="M-3 0a3 3 0 1 0 6 0a3 3 0 1 0 -6 0Z"/></g></g><g id="group-duskwood_crossroads_3" data-id="duskwood_crossroads_3" class="mk m-group lod-3" transform="translate(87 -256)" data-variant="normal" data-area="duskwood_crossroads"><g class="k"><path class="m-shape" d="M-3 0a3 3 0 1 0 6 0a3 3 0 1 0 -6 0Z"/></g></g><g id="group-duskwood_crossroads_4" data-id="duskwood_crossroads_4" class="mk m-group lod-3" transform="translate(280 -223)" data-variant="normal" data-area="duskwood_crossroads"><g class="k"><path class="m-shape" d="M-3 0a3 3 0 1 0 6 0a3 3 0 1 0 -6 0Z"/></g></g><g id="group-duskwood_crossroads_5" data-id="duskwood_crossroads_5" class="mk m-group lod-3" transform="translate(220 -283)" data-variant="normal" data-area="duskwood_crossroads"><g class="k"><path class="m-shape" d="M-3 0a3 3 0 1 0 6 0a3 3 0 1 0 -6 0Z"/></g></g><g id="group-duskwood_swamp_1" data-id="duskwood_swamp_1" class="mk m-group lod-3" transform="translate(362 336)" data-variant="normal" data-area="duskwood_swamp"><g class="k"><path class="m-shape" d="M-3 0a3 3 0 1 0 6 0a3 3 0 1 0 -6 0Z"/></g></g><g id="group-duskwood_swamp_2" data-id="duskwood_swamp_2" class="mk m-group lod-3" transform="translate(412 498)" data-variant="normal" data-area="duskwood_swamp"><g class="k"><path class="m-shape" d="M-3 0a3 3 0 1 0 6 0a3 3 0 1 0 -6 0Z"/></g></g><g id="group-duskwood_swamp_3" data-id="duskwood_swamp_3" class="mk m-group lod-3" transform="translate(507 380)" data-variant="normal" data-area="duskwood_swamp"><g class="k"><path class="m-shape" d="M-3 0a3 3 0 1 0 6 0a3 3 0 1 0 -6 0Z"/></g></g><g id="group-duskwood_swamp_4" data-id="duskwood_swamp_4" class="mk m-group lod-3" transform="translate(451 700)" data-variant="normal" data-area="duskwood_swamp"><g class="k"><path class="m-shape" d="M-3 0a3 3 0 1 0 6 0a3 3 0 1 0 -6 0Z"/></g></g><g id="group-duskwood_swamp_5" data-id="duskwood_swamp_5" class="mk m-group lod-3" transform="translate(406 689)" data-variant="normal" data-area="duskwood_swamp"><g class="k"><path class="m-shape" d="M-3 0a3 3 0 1 0 6 0a3 3 0 1 0 -6 0Z"/></g></g><g id="group-duskwood_swamp_6" data-id="duskwood_swamp_6" class="mk m-group lod-3" transform="translate(650 181)" data-variant="normal" data-area="duskwood_swamp"><g class="k"><path class="m-shape" d="M-3 0a3 3 0 1 0 6 0a3 3 0 1 0 -6 0Z"/></g></g><g id="group-duskwood_swamp_7" data-id="duskwood_swamp_7" class="mk m-group lod-3" transform="translate(423 543)" data-variant="normal" data-area="duskwood_swamp"><g class="k"><path class="m-shape" d="M-3 0a3 3 0 1 0 6 0a3 3 0 1 0 -6 0Z"/></g></g><g id="group-duskwood_witchmarsh_1" data-id="duskwood_witchmarsh_1" class="mk m-group lod-3" transform="translate(197 50)" data-variant="normal" data-area="duskwood_witchmarsh"><g class="k"><path class="m-shape" d="M-3 0a3 3 0 1 0 6 0a3 3 0 1 0 -6 0Z"/></g></g><g id="group-duskwood_witchmarsh_2" data-id="duskwood_witchmarsh_2" class="mk m-group lod-3" transform="translate(-125 116)" data-variant="normal" data-area="duskwood_witchmarsh"><g class="k"><path class="m-shape" d="M-3 0a3 3 0 1 0 6 0a3 3 0 1 0 -6 0Z"/></g></g><g id="group-duskwood_witchmarsh_3" data-id="duskwood_witchmarsh_3" class="mk m-group lod-3" transform="translate(-161 41)" data-variant="normal" data-area="duskwood_witchmarsh"><g class="k"><path class="m-shape" d="M-3 0a3 3 0 1 0 6 0a3 3 0 1 0 -6 0Z"/></g></g><g id="group-duskwood_witchmarsh_4" data-id="duskwood_witchmarsh_4" class="mk m-group lod-3" transform="translate(131 53)" data-variant="normal" data-area="duskwood_witchmarsh"><g class="k"><path class="m-shape" d="M-3 0a3 3 0 1 0 6 0a3 3 0 1 0 -6 0Z"/></g></g><g id="group-duskwood_bloodcliffs_1" data-id="duskwood_bloodcliffs_1" class="mk m-group lod-3" transform="translate(628 64)" data-variant="normal" data-area="duskwood_bloodcliffs"><g class="k"><path class="m-shape" d="M-3 0a3 3 0 1 0 6 0a3 3 0 1 0 -6 0Z"/></g></g><g id="group-duskwood_bloodcliffs_2" data-id="duskwood_bloodcliffs_2" class="mk m-group lod-3" transform="translate(617 142)" data-variant="normal" data-area="duskwood_bloodcliffs"><g class="k"><path class="m-shape" d="M-3 0a3 3 0 1 0 6 0a3 3 0 1 0 -6 0Z"/></g></g><g id="group-duskwood_bloodcliffs_3" data-id="duskwood_bloodcliffs_3" class="mk m-group lod-3" transform="translate(714 68)" data-variant="normal" data-area="duskwood_bloodcliffs"><g class="k"><path class="m-shape" d="M-3 0a3 3 0 1 0 6 0a3 3 0 1 0 -6 0Z"/></g></g><g id="group-duskwood_bloodcliffs_4" data-id="duskwood_bloodcliffs_4" class="mk m-group lod-3" transform="translate(556 -159)" data-variant="normal" data-area="duskwood_bloodcliffs"><g class="k"><path class="m-shape" d="M-3 0a3 3 0 1 0 6 0a3 3 0 1 0 -6 0Z"/></g></g><g id="group-duskwood_bloodcliffs_5" data-id="duskwood_bloodcliffs_5" class="mk m-group lod-3" transform="translate(577 31)" data-variant="normal" data-area="duskwood_bloodcliffs"><g class="k"><path class="m-shape" d="M-3 0a3 3 0 1 0 6 0a3 3 0 1 0 -6 0Z"/></g></g><g id="group-duskwood_bloodcliffs_6" data-id="duskwood_bloodcliffs_6" class="mk m-group lod-3" transform="translate(653 -297)" data-variant="normal" data-area="duskwood_bloodcliffs"><g class="k"><path class="m-shape" d="M-3 0a3 3 0 1 0 6 0a3 3 0 1 0 -6 0Z"/></g></g></g><g id="layer-gather"><rect class="m-gather m-gather-rect m-vein lod-2" x="-760" y="-760" width="760" height="1520" data-kind="vein_iron" data-n="12" data-i="1"/><rect class="m-gather m-gather-rect m-vein lod-2" x="0" y="-760" width="760" height="1520" data-kind="vein_silver" data-n="10" data-i="2"/><rect class="m-gather m-gather-rect m-bush lod-2" x="-760" y="-760" width="860" height="1520" data-kind="bush_nightshade" data-n="14" data-i="3"/><rect class="m-gather m-gather-rect m-bush lod-2" x="-100" y="-760" width="860" height="1520" data-kind="bush_moonpetal" data-n="12" data-i="4"/><path class="m-gather-pt m-fishing" d="M591 486a9 9 0 1 0 18 0a9 9 0 1 0 -18 0ZM411 466a9 9 0 1 0 18 0a9 9 0 1 0 -18 0Z" data-kind="fishing"/></g><g id="layer-portals"><g id="portal-duskwood_meadows" data-id="duskwood_meadows" class="mk m-portal" transform="translate(-770 0)" data-kind="portal" data-target="meadows"><g class="k"><path class="m-shape" d="M-7 7V0a7 7 0 0 1 14 0V7Z"/><text lang="pl" class="m-label lod-2" x="0" y="20">Szepczące Łąki</text><text lang="en" class="m-label lod-2" x="0" y="20">Whispering Meadows</text></g></g><g id="portal-duskwood_city" data-id="duskwood_city" class="mk m-portal" transform="translate(-770 160)" data-kind="portal" data-target="city"><g class="k"><path class="m-shape" d="M-7 7V0a7 7 0 0 1 14 0V7Z"/><text lang="pl" class="m-label lod-2" x="0" y="20">Vaelthorn</text><text lang="en" class="m-label lod-2" x="0" y="20">Vaelthorn</text></g></g><g id="portal-duskwood_ashen" data-id="duskwood_ashen" class="mk m-portal" transform="translate(740 -740)" data-kind="portal" data-target="ashen"><g class="k"><path class="m-shape" d="M-7 7V0a7 7 0 0 1 14 0V7Z"/><text lang="pl" class="m-label lod-2" x="0" y="20">Spalone Pustkowia</text><text lang="en" class="m-label lod-2" x="0" y="20">Ashen Wastes</text></g></g></g><g id="layer-caves"><g id="cave-duskwood_den" data-id="duskwood_den" class="mk m-cave" transform="translate(-420 -745)" data-target="duskwood_den"><g class="k"><path class="m-arrow" d="M0 8L0 16.8"/><path class="m-shape" d="M0 -8L8 0L0 8L-8 0Z"/><text lang="pl" class="m-label lod-2" x="0" y="21">Wilcza Nora</text><text lang="en" class="m-label lod-2" x="0" y="21">Wolfden Hollow</text></g></g><g id="cave-duskwood_barrow" data-id="duskwood_barrow" class="mk m-cave" transform="translate(180 -745)" data-target="duskwood_barrow"><g class="k"><path class="m-arrow" d="M0 8L0 16.8"/><path class="m-shape" d="M0 -8L8 0L0 8L-8 0Z"/><text lang="pl" class="m-label lod-2" x="0" y="21">Kurhan Kultystów</text><text lang="en" class="m-label lod-2" x="0" y="21">Cultist Barrow</text></g></g><g id="cave-duskwood_cave" data-id="duskwood_cave" class="mk m-cave" transform="translate(745 0)" data-target="duskwood_cave"><g class="k"><path class="m-arrow" d="M-8 0L-16.8 0"/><path class="m-shape" d="M0 -8L8 0L0 8L-8 0Z"/><text lang="pl" class="m-label lod-2" x="0" y="21">Krypta Zapomnianych</text><text lang="en" class="m-label lod-2" x="0" y="21">Crypt of the Forgotten</text></g></g></g><g id="layer-npcs"><g id="npc-scout_duskwood" data-id="scout_duskwood" class="mk m-npc" transform="translate(-690 -36)"><g class="k"><path class="m-shape" d="M-7 0a7 7 0 1 0 14 0a7 7 0 1 0 -14 0Z"/><text class="m-glyph" y="0.5">⚑</text><text lang="pl" class="m-label lod-3" x="0" y="20">Zwiadowca Borin</text><text lang="en" class="m-label lod-3" x="0" y="20">Scout Borin</text></g></g></g><g id="layer-bosses"></g><g id="layer-labels"><g class="m-al lod-1" data-for="area-duskwood_werethicket" transform="translate(-590 0)"><g class="k"><text lang="pl" class="m-alabel" x="0" y="-3">Wilcze Ostępy</text><text lang="en" class="m-alabel" x="0" y="-3">Werewolf Thicket</text><text class="m-alabel m-alv" y="13">⚡ 20–25</text></g></g><g class="m-al lod-1" data-for="area-duskwood_bearhollow" transform="translate(-530 600)"><g class="k"><text lang="pl" class="m-alabel" x="0" y="-3">Niedźwiedzi Jar</text><text lang="en" class="m-alabel" x="0" y="-3">Bear Hollow</text><text class="m-alabel m-alv" y="13">✦ 21–27</text></g></g><g class="m-al lod-1" data-for="area-duskwood_ruins" transform="translate(-170 -465)"><g class="k"><text lang="pl" class="m-alabel" x="0" y="-3">Nawiedzone Ruiny</text><text lang="en" class="m-alabel" x="0" y="-3">Haunted Ruins</text><text class="m-alabel m-alv" y="13">⛁ 24–31</text></g></g><g class="m-al lod-1" data-for="area-duskwood_heart" transform="translate(25 465)"><g class="k"><text lang="pl" class="m-alabel" x="0" y="-3">Serce Puszczy</text><text lang="en" class="m-alabel" x="0" y="-3">Forest Heart</text><text class="m-alabel m-alv" y="13">⚡ 26–33</text></g></g><g class="m-al lod-1" data-for="area-duskwood_cultvillage" transform="translate(540 -540)"><g class="k"><text lang="pl" class="m-alabel" x="0" y="-3">Osada Kultystów</text><text lang="en" class="m-alabel" x="0" y="-3">Cultist Village</text><text class="m-alabel m-alv" y="13">⛁ 29–37</text></g></g><g class="m-al lod-1" data-for="area-duskwood_crossroads" transform="translate(290 -190)"><g class="k"><text lang="pl" class="m-alabel" x="0" y="-3">Mglisty Rozstaj</text><text lang="en" class="m-alabel" x="0" y="-3">Misty Crossroads</text><text class="m-alabel m-alv" y="13">⚡ 30–36</text></g></g><g class="m-al lod-1" data-for="area-duskwood_swamp" transform="translate(540 480)"><g class="k"><text lang="pl" class="m-alabel" x="0" y="-3">Trolle Bagno</text><text lang="en" class="m-alabel" x="0" y="-3">Troll Swamp</text><text class="m-alabel m-alv" y="13">⚡ 32–40</text></g></g><g class="m-al lod-1" data-for="area-duskwood_witchmarsh" transform="translate(50 85)"><g class="k"><text lang="pl" class="m-alabel" x="0" y="-3">Wiedźmie Moczary</text><text lang="en" class="m-alabel" x="0" y="-3">Witch Marsh</text><text class="m-alabel m-alv" y="13">✦ 36–42</text></g></g><g class="m-al lod-1" data-for="area-duskwood_bloodcliffs" transform="translate(650 -70)"><g class="k"><text lang="pl" class="m-alabel" x="0" y="-3">Krwawe Urwiska</text><text lang="en" class="m-alabel" x="0" y="-3">Blood Cliffs</text><text class="m-alabel m-alv" y="13">40–45</text></g></g></g></svg>
