<svg xmlns="http://www.w3.org/2000/svg" viewBox="-240 -240 480 480" data-map="meadows_burrow" class="vw-mapsvg" role="img"><title>Gobliński Kopiec / Goblin Warren</title><style>svg{font-family:"Alegreya Sans",system-ui,sans-serif}.k{transform:scale(var(--k,0.8))}text[lang="en"]{display:none}.m-shade{fill:var(--vw-map-shade,#14161B);opacity:var(--vw-map-shade-o,.42)}.m-water{fill:var(--vw-map-water,#3A6FA8)}.m-stream{fill:none;stroke:var(--vw-map-water,#3A6FA8);stroke-linecap:round;stroke-linejoin:round}.m-road{fill:none;stroke:var(--vw-map-path,#9A8A68);stroke-linecap:round;stroke-linejoin:round;opacity:.85}.m-floor{fill:var(--vw-map-floor,#5A5650)}.m-corr{fill:none;stroke:var(--vw-map-floor,#5A5650);stroke-linecap:round}.m-area{fill:var(--vw-map-area,rgba(240,236,226,.07));stroke:var(--vw-map-area-line,rgba(240,236,226,.5));stroke-width:1.5px;vector-effect:non-scaling-stroke;stroke-dasharray:6 4}.m-room{fill:none;stroke:rgba(240,236,226,.25);stroke-width:1px;vector-effect:non-scaling-stroke}.m-gather{fill:none;stroke-width:1px;vector-effect:non-scaling-stroke;stroke-dasharray:3 5;opacity:.7}.m-vein{stroke:#E8C25A;fill:#E8C25A}.m-bush{stroke:#6FCF5A;fill:#6FCF5A}.m-fishing{stroke:#5AA8E8;fill:#5AA8E8}.m-gather-rect{fill-opacity:.06}.m-shape{stroke:#14161B;stroke-width:1.5px}.m-arrow{stroke:#F0ECE2;stroke-width:2px;stroke-linecap:round}.m-glyph{font-size:10px;text-anchor:middle;dominant-baseline:central;fill:#14161B;font-weight:800}.m-label,.m-alabel,.m-node-name,.m-node-lv{text-anchor:middle;paint-order:stroke;stroke:#101216;stroke-width:3.5px;stroke-linejoin:round;fill:#F0ECE2}.m-label{font-size:12px;font-weight:800}.m-alabel{font-size:14px;font-weight:800}.m-alv{font-size:12px;font-weight:700;fill:#E8C25A}.m-portal .m-shape{fill:#4A8BE8}.m-gate .m-shape{fill:#4A8BE8}.m-exit .m-shape{fill:#9AA4B4}.m-cave .m-shape{fill:#E0503F}.m-dungeon .m-shape{fill:#E0503F}.m-npc .m-shape{fill:#E8C25A}.m-boss .m-shape{fill:#E0503F}.m-group .m-shape{fill:#F0ECE2}.m-elite .m-shape{fill:#E8C25A}.m-elite2 .m-shape{fill:#FF9F1C}.m-link{stroke:rgba(232,194,90,.45);stroke-width:2px;vector-effect:non-scaling-stroke;stroke-dasharray:2 6;stroke-linecap:round}.m-node .m-plate{fill:#1B1D23;stroke:rgba(232,194,90,.55);stroke-width:1px;vector-effect:non-scaling-stroke}.m-node-name{font-family:'Grenze Gotisch',serif;font-size:22px;font-weight:700}.m-node-lv{font-size:12px;font-weight:800;fill:#C9C2B0}.m-wbg{fill:var(--vw-map-world,#15171C)}.m-cavenode .m-shape{fill:#E0503F}.m-citynode .m-shape{fill:#5FCF6B}</style><g id="layer-bg"><rect class="m-bg" x="-240" y="-240" width="480" height="480" style="fill:var(--vw-map-bg-cave,#1E1C1A)"/></g><g id="layer-water"></g><g id="layer-roads"><path class="m-corr" d="M-185 0L-81 64M-81 64L7 -45" style="stroke-width:15"/><path class="m-corr" d="M121 4L96 114" style="stroke-width:17"/><path class="m-corr" d="M7 -45L121 4" style="stroke-width:18"/><path class="m-floor" d="M-221 0a36 36 0 1 0 72 0a36 36 0 1 0 -72 0ZM-122 64a41 41 0 1 0 82 0a41 41 0 1 0 -82 0ZM-44 -45a51 51 0 1 0 102 0a51 51 0 1 0 -102 0ZM77 4a44 44 0 1 0 88 0a44 44 0 1 0 -88 0ZM52 114a44 44 0 1 0 88 0a44 44 0 1 0 -88 0Z"/></g><rect class="m-shade" x="-240" y="-240" width="480" height="480"/><g id="layer-rooms"><circle id="room-meadows_burrow-1" class="m-room m-room-entrance" cx="-185" cy="0" r="36"/><circle id="room-meadows_burrow-2" class="m-room m-room-room" cx="-81" cy="64" r="41"/><circle id="room-meadows_burrow-3" class="m-room m-room-room" cx="7" cy="-45" r="51"/><circle id="room-meadows_burrow-4" class="m-room m-room-room" cx="121" cy="4" r="44"/><circle id="room-meadows_burrow-5" class="m-room m-room-room" cx="96" cy="114" r="44"/></g><g id="layer-groups"><g id="group-meadows_burrow_elite2" data-id="meadows_burrow_elite2" class="mk m-elite2 lod-1" transform="translate(105 3)" data-variant="elite2" data-area="meadows_burrow"><g class="k"><path class="m-shape" d="M0 -9L9 0L0 9L-9 0Z"/></g></g><g id="group-meadows_burrow_elite_1" data-id="meadows_burrow_elite_1" class="mk m-elite lod-2" transform="translate(-75 63)" data-variant="elite" data-area="meadows_burrow"><g class="k"><path class="m-shape" d="M0 -6L6 0L0 6L-6 0Z"/></g></g><g id="group-meadows_burrow_elite_2" data-id="meadows_burrow_elite_2" class="mk m-elite lod-2" transform="translate(10 -44)" data-variant="elite" data-area="meadows_burrow"><g class="k"><path class="m-shape" d="M0 -6L6 0L0 6L-6 0Z"/></g></g><g id="group-meadows_burrow_elite_3" data-id="meadows_burrow_elite_3" class="mk m-elite lod-2" transform="translate(125 14)" data-variant="elite" data-area="meadows_burrow"><g class="k"><path class="m-shape" d="M0 -6L6 0L0 6L-6 0Z"/></g></g><g id="group-meadows_burrow_elite_4" data-id="meadows_burrow_elite_4" class="mk m-elite lod-2" transform="translate(98 92)" data-variant="elite" data-area="meadows_burrow"><g class="k"><path class="m-shape" d="M0 -6L6 0L0 6L-6 0Z"/></g></g><g id="group-meadows_burrow_group_1" data-id="meadows_burrow_group_1" class="mk m-group lod-3" transform="translate(-91 59)" data-variant="normal" data-area="meadows_burrow"><g class="k"><path class="m-shape" d="M-3 0a3 3 0 1 0 6 0a3 3 0 1 0 -6 0Z"/></g></g><g id="group-meadows_burrow_group_2" data-id="meadows_burrow_group_2" class="mk m-group lod-3" transform="translate(22 -57)" data-variant="normal" data-area="meadows_burrow"><g class="k"><path class="m-shape" d="M-3 0a3 3 0 1 0 6 0a3 3 0 1 0 -6 0Z"/></g></g><g id="group-meadows_burrow_group_3" data-id="meadows_burrow_group_3" class="mk m-group lod-3" transform="translate(7 -24)" data-variant="normal" data-area="meadows_burrow"><g class="k"><path class="m-shape" d="M-3 0a3 3 0 1 0 6 0a3 3 0 1 0 -6 0Z"/></g></g><g id="group-meadows_burrow_group_4" data-id="meadows_burrow_group_4" class="mk m-group lod-3" transform="translate(137 -9)" data-variant="normal" data-area="meadows_burrow"><g class="k"><path class="m-shape" d="M-3 0a3 3 0 1 0 6 0a3 3 0 1 0 -6 0Z"/></g></g><g id="group-meadows_burrow_group_5" data-id="meadows_burrow_group_5" class="mk m-group lod-3" transform="translate(69 120)" data-variant="normal" data-area="meadows_burrow"><g class="k"><path class="m-shape" d="M-3 0a3 3 0 1 0 6 0a3 3 0 1 0 -6 0Z"/></g></g></g><g id="layer-portals"><g id="portal-meadows_burrow_exit" data-id="meadows_burrow_exit" class="mk m-exit" transform="translate(-211 0)" data-kind="exit" data-target="meadows"><g class="k"><path class="m-shape" d="M-5 -5H5V5H-5Z"/><text lang="pl" class="m-label lod-2" x="0" y="18">Szepczące Łąki</text><text lang="en" class="m-label lod-2" x="0" y="18">Whispering Meadows</text></g></g></g><g id="layer-npcs"></g><g id="layer-bosses"></g><g id="layer-labels"></g></svg>
