<svg xmlns="http://www.w3.org/2000/svg" viewBox="-320 -320 640 640" data-map="meadows_cave" class="vw-mapsvg" role="img"><title>Jaskinia Mchów / Mosshollow Cave</title><style>svg{font-family:"Alegreya Sans",system-ui,sans-serif}.k{transform:scale(var(--k,1.1))}text[lang="en"]{display:none}.m-shade{fill:var(--vw-map-shade,#14161B);opacity:var(--vw-map-shade-o,.42)}.m-water{fill:var(--vw-map-water,#3A6FA8)}.m-stream{fill:none;stroke:var(--vw-map-water,#3A6FA8);stroke-linecap:round;stroke-linejoin:round}.m-road{fill:none;stroke:var(--vw-map-path,#9A8A68);stroke-linecap:round;stroke-linejoin:round;opacity:.85}.m-floor{fill:var(--vw-map-floor,#5A5650)}.m-corr{fill:none;stroke:var(--vw-map-floor,#5A5650);stroke-linecap:round}.m-area{fill:var(--vw-map-area,rgba(240,236,226,.07));stroke:var(--vw-map-area-line,rgba(240,236,226,.5));stroke-width:1.5px;vector-effect:non-scaling-stroke;stroke-dasharray:6 4}.m-room{fill:none;stroke:rgba(240,236,226,.25);stroke-width:1px;vector-effect:non-scaling-stroke}.m-gather{fill:none;stroke-width:1px;vector-effect:non-scaling-stroke;stroke-dasharray:3 5;opacity:.7}.m-vein{stroke:#E8C25A;fill:#E8C25A}.m-bush{stroke:#6FCF5A;fill:#6FCF5A}.m-fishing{stroke:#5AA8E8;fill:#5AA8E8}.m-gather-rect{fill-opacity:.06}.m-shape{stroke:#14161B;stroke-width:1.5px}.m-arrow{stroke:#F0ECE2;stroke-width:2px;stroke-linecap:round}.m-glyph{font-size:10px;text-anchor:middle;dominant-baseline:central;fill:#14161B;font-weight:800}.m-label,.m-alabel,.m-node-name,.m-node-lv{text-anchor:middle;paint-order:stroke;stroke:#101216;stroke-width:3.5px;stroke-linejoin:round;fill:#F0ECE2}.m-label{font-size:12px;font-weight:800}.m-alabel{font-size:14px;font-weight:800}.m-alv{font-size:12px;font-weight:700;fill:#E8C25A}.m-portal .m-shape{fill:#4A8BE8}.m-gate .m-shape{fill:#4A8BE8}.m-exit .m-shape{fill:#9AA4B4}.m-cave .m-shape{fill:#E0503F}.m-dungeon .m-shape{fill:#E0503F}.m-npc .m-shape{fill:#E8C25A}.m-boss .m-shape{fill:#E0503F}.m-group .m-shape{fill:#F0ECE2}.m-elite .m-shape{fill:#E8C25A}.m-elite2 .m-shape{fill:#FF9F1C}.m-link{stroke:rgba(232,194,90,.45);stroke-width:2px;vector-effect:non-scaling-stroke;stroke-dasharray:2 6;stroke-linecap:round}.m-node .m-plate{fill:#1B1D23;stroke:rgba(232,194,90,.55);stroke-width:1px;vector-effect:non-scaling-stroke}.m-node-name{font-family:'Grenze Gotisch',serif;font-size:22px;font-weight:700}.m-node-lv{font-size:12px;font-weight:800;fill:#C9C2B0}.m-wbg{fill:var(--vw-map-world,#15171C)}.m-cavenode .m-shape{fill:#E0503F}.m-citynode .m-shape{fill:#5FCF6B}</style><g id="layer-bg"><rect class="m-bg" x="-320" y="-320" width="640" height="640" style="fill:var(--vw-map-bg-cave,#1E1C1A)"/></g><g id="layer-water"></g><g id="layer-roads"><path class="m-corr" d="M-250 0L-150 -140M-150 -140L-30 -230M-250 0L-150 140M-30 -230L130 -160M-150 -140L-30 0M130 -160L235 0M-30 0L90 215" style="stroke-width:16"/><path class="m-floor" d="M-292 0a42 42 0 1 0 84 0a42 42 0 1 0 -84 0ZM-108 0a78 78 0 1 0 156 0a78 78 0 1 0 -156 0ZM-188 -140a38 38 0 1 0 76 0a38 38 0 1 0 -76 0ZM-188 140a38 38 0 1 0 76 0a38 38 0 1 0 -76 0ZM88 -160a42 42 0 1 0 84 0a42 42 0 1 0 -84 0ZM-86 -230a56 56 0 1 0 112 0a56 56 0 1 0 -112 0ZM34 215a56 56 0 1 0 112 0a56 56 0 1 0 -112 0ZM183 0a52 52 0 1 0 104 0a52 52 0 1 0 -104 0Z"/></g><rect class="m-shade" x="-320" y="-320" width="640" height="640"/><g id="layer-rooms"><circle id="room-meadows_cave-1" class="m-room m-room-entrance" cx="-250" cy="0" r="42"/><circle id="room-meadows_cave-2" class="m-room m-room-room" cx="-30" cy="0" r="78"/><circle id="room-meadows_cave-3" class="m-room m-room-room" cx="-150" cy="-140" r="38"/><circle id="room-meadows_cave-4" class="m-room m-room-room" cx="-150" cy="140" r="38"/><circle id="room-meadows_cave-5" class="m-room m-room-room" cx="130" cy="-160" r="42"/><circle id="room-meadows_cave-6" class="m-room m-room-room" cx="-30" cy="-230" r="56"/><circle id="room-meadows_cave-7" class="m-room m-room-room" cx="90" cy="215" r="56"/><circle id="room-meadows_cave-8" class="m-room m-room-antechamber" cx="235" cy="0" r="52"/></g><g id="layer-groups"><g id="group-meadows_cave_elite2" data-id="meadows_cave_elite2" class="mk m-elite2 lod-1" transform="translate(145 -168)" data-variant="elite2" data-area="meadows_cave"><g class="k"><path class="m-shape" d="M0 -9L9 0L0 9L-9 0Z"/></g></g><g id="group-meadows_cave_elite_1" data-id="meadows_cave_elite_1" class="mk m-elite lod-2" transform="translate(-13 -42)" data-variant="elite" data-area="meadows_cave"><g class="k"><path class="m-shape" d="M0 -6L6 0L0 6L-6 0Z"/></g></g><g id="group-meadows_cave_elite_2" data-id="meadows_cave_elite_2" class="mk m-elite lod-2" transform="translate(-139 -135)" data-variant="elite" data-area="meadows_cave"><g class="k"><path class="m-shape" d="M0 -6L6 0L0 6L-6 0Z"/></g></g><g id="group-meadows_cave_elite_3" data-id="meadows_cave_elite_3" class="mk m-elite lod-2" transform="translate(-163 154)" data-variant="elite" data-area="meadows_cave"><g class="k"><path class="m-shape" d="M0 -6L6 0L0 6L-6 0Z"/></g></g><g id="group-meadows_cave_elite_4" data-id="meadows_cave_elite_4" class="mk m-elite lod-2" transform="translate(117 -161)" data-variant="elite" data-area="meadows_cave"><g class="k"><path class="m-shape" d="M0 -6L6 0L0 6L-6 0Z"/></g></g><g id="group-meadows_cave_elite_5" data-id="meadows_cave_elite_5" class="mk m-elite lod-2" transform="translate(-24 -249)" data-variant="elite" data-area="meadows_cave"><g class="k"><path class="m-shape" d="M0 -6L6 0L0 6L-6 0Z"/></g></g><g id="group-meadows_cave_group_1" data-id="meadows_cave_group_1" class="mk m-group lod-3" transform="translate(-11 -2)" data-variant="normal" data-area="meadows_cave"><g class="k"><path class="m-shape" d="M-3 0a3 3 0 1 0 6 0a3 3 0 1 0 -6 0Z"/></g></g><g id="group-meadows_cave_group_2" data-id="meadows_cave_group_2" class="mk m-group lod-3" transform="translate(-30 16)" data-variant="normal" data-area="meadows_cave"><g class="k"><path class="m-shape" d="M-3 0a3 3 0 1 0 6 0a3 3 0 1 0 -6 0Z"/></g></g><g id="group-meadows_cave_group_3" data-id="meadows_cave_group_3" class="mk m-group lod-3" transform="translate(-146 -119)" data-variant="normal" data-area="meadows_cave"><g class="k"><path class="m-shape" d="M-3 0a3 3 0 1 0 6 0a3 3 0 1 0 -6 0Z"/></g></g><g id="group-meadows_cave_group_4" data-id="meadows_cave_group_4" class="mk m-group lod-3" transform="translate(-157 119)" data-variant="normal" data-area="meadows_cave"><g class="k"><path class="m-shape" d="M-3 0a3 3 0 1 0 6 0a3 3 0 1 0 -6 0Z"/></g></g><g id="group-meadows_cave_group_5" data-id="meadows_cave_group_5" class="mk m-group lod-3" transform="translate(114 -180)" data-variant="normal" data-area="meadows_cave"><g class="k"><path class="m-shape" d="M-3 0a3 3 0 1 0 6 0a3 3 0 1 0 -6 0Z"/></g></g><g id="group-meadows_cave_group_6" data-id="meadows_cave_group_6" class="mk m-group lod-3" transform="translate(-47 -198)" data-variant="normal" data-area="meadows_cave"><g class="k"><path class="m-shape" d="M-3 0a3 3 0 1 0 6 0a3 3 0 1 0 -6 0Z"/></g></g><g id="group-meadows_cave_group_7" data-id="meadows_cave_group_7" class="mk m-group lod-3" transform="translate(-4 -213)" data-variant="normal" data-area="meadows_cave"><g class="k"><path class="m-shape" d="M-3 0a3 3 0 1 0 6 0a3 3 0 1 0 -6 0Z"/></g></g><g id="group-meadows_cave_group_8" data-id="meadows_cave_group_8" class="mk m-group lod-3" transform="translate(108 213)" data-variant="normal" data-area="meadows_cave"><g class="k"><path class="m-shape" d="M-3 0a3 3 0 1 0 6 0a3 3 0 1 0 -6 0Z"/></g></g><g id="group-meadows_cave_group_9" data-id="meadows_cave_group_9" class="mk m-group lod-3" transform="translate(61 226)" data-variant="normal" data-area="meadows_cave"><g class="k"><path class="m-shape" d="M-3 0a3 3 0 1 0 6 0a3 3 0 1 0 -6 0Z"/></g></g></g><g id="layer-portals"><g id="portal-meadows_cave_exit" data-id="meadows_cave_exit" class="mk m-exit" transform="translate(-278 0)" data-kind="exit" data-target="meadows"><g class="k"><path class="m-shape" d="M-5 -5H5V5H-5Z"/><text lang="pl" class="m-label lod-2" x="0" y="18">Szepczące Łąki</text><text lang="en" class="m-label lod-2" x="0" y="18">Whispering Meadows</text></g></g><g id="portal-dungeon_meadows" data-id="dungeon_meadows" class="mk m-dungeon" transform="translate(272 0)" data-kind="dungeon" data-target="dungeon_meadows"><g class="k"><path class="m-shape" d="M0 -8L8 0L0 8L-8 0Z"/><text lang="pl" class="m-label lod-2" x="0" y="21">Komnata Grimroka</text><text lang="en" class="m-label lod-2" x="0" y="21">Grimrok's Chamber</text></g></g></g><g id="layer-npcs"></g><g id="layer-bosses"><g id="boss-grimrok" data-id="grimrok" class="mk m-boss" transform="translate(248 40)" data-target="dungeon_meadows"><g class="k"><path class="m-shape" d="M0 -11L11 0L0 11L-11 0Z"/><text class="m-glyph" y="0.5">☠</text><text lang="pl" class="m-label lod-1" x="0" y="24">Grimrok, Wódz Goblinów</text><text lang="en" class="m-label lod-1" x="0" y="24">Grimrok, Goblin Warchief</text></g></g></g><g id="layer-labels"></g></svg>
